<?xml version="1.0" encoding="utf-8"?>
<!-- Generator: Adobe Illustrator 14.0.0, SVG Export Plug-In . SVG Version: 6.00 Build 43363)  -->
<!DOCTYPE svg PUBLIC "-//W3C//DTD SVG 1.1//EN" "http://www.w3.org/Graphics/SVG/1.1/DTD/svg11.dtd">
<svg version="1.1" id="Ebene_1" xmlns="http://www.w3.org/2000/svg" xmlns:xlink="http://www.w3.org/1999/xlink" x="0px" y="0px"
	 width="201px" height="124px" viewBox="0 0 201 124" enable-background="new 0 0 201 124" xml:space="preserve">
<g>
	<linearGradient id="SVGID_1_" gradientUnits="userSpaceOnUse" x1="47.0591" y1="67.5117" x2="47.0591" y2="54.6143">
		<stop  offset="0.0056" style="stop-color:#3266A9"/>
		<stop  offset="1" style="stop-color:#0099FF"/>
	</linearGradient>
	<path fill="url(#SVGID_1_)" d="M50.282,55.502c-0.784-0.592-2.104-0.888-3.961-0.888h-1.376l-2.283,12.898h1.779
		c3.76,0,6.032-2.245,6.815-6.733c0.134-0.871,0.202-1.642,0.202-2.313C51.457,57.081,51.064,56.093,50.282,55.502z"/>
	<linearGradient id="SVGID_2_" gradientUnits="userSpaceOnUse" x1="65.9609" y1="49.104" x2="65.9609" y2="36.9434">
		<stop  offset="0.0056" style="stop-color:#3266A9"/>
		<stop  offset="1" style="stop-color:#0099FF"/>
	</linearGradient>
	<path fill="url(#SVGID_2_)" d="M65.72,40.482c1.074,0,1.611,0.381,1.611,1.143c0,0.701-0.321,1.201-0.962,1.5
		c-0.209,0.119-0.366,0.194-0.471,0.224c-0.065,0.019-0.158,0.037-0.271,0.056c1.98,1.621,3.702,3.544,5.097,5.699
		c0.117-0.321,0.21-0.658,0.277-1.013l0.09-1.008c0-1.223-0.568-2.081-1.701-2.574c0.776-0.402,1.376-0.94,1.801-1.611
		c0.425-0.672,0.638-1.418,0.638-2.239c0-0.642-0.198-1.265-0.593-1.868c-0.396-0.605-0.98-1.049-1.757-1.333
		c-0.433-0.193-0.876-0.328-1.332-0.402c-0.456-0.075-1.003-0.113-1.645-0.113c-0.82,0-1.663,0.124-2.529,0.37
		c-0.865,0.246-1.6,0.563-2.204,0.952s-1.13,0.907-1.578,1.557c-0.036,0.052-0.066,0.109-0.101,0.163
		c1.196,0.534,2.341,1.163,3.426,1.874C63.947,40.943,64.68,40.482,65.72,40.482z"/>
	<linearGradient id="SVGID_3_" gradientUnits="userSpaceOnUse" x1="50.0576" y1="87.0566" x2="50.0576" y2="37.8525">
		<stop  offset="0.0056" style="stop-color:#3266A9"/>
		<stop  offset="1" style="stop-color:#0099FF"/>
	</linearGradient>
	<path fill="url(#SVGID_3_)" d="M70.725,49.104c-0.433,1.189-1.208,2.147-2.331,2.871c-1.425,0.918-3.182,1.377-5.271,1.377
		c-1.179,0-2.175-0.176-2.988-0.525c-0.813-0.35-1.444-0.864-1.891-1.543c-0.448-0.678-0.671-1.481-0.671-2.405l0.022-0.694
		l0.156-0.693h4.367l-0.028,0.179v0.179v0.246c0,1.164,0.628,1.746,1.884,1.746c0.635,0,1.201-0.217,1.696-0.649
		c0.495-0.434,0.742-0.94,0.742-1.522c0-0.522-0.194-0.887-0.582-1.097c-0.329-0.208-1.007-0.313-2.036-0.313l0.47-2.754
		l1.141-0.067c0.083-0.011,0.154-0.022,0.221-0.033c-0.674-0.551-1.378-1.067-2.11-1.546c-0.044,0.096-0.087,0.195-0.125,0.302
		h-4.185c0.192-0.837,0.49-1.56,0.884-2.175c-3.064-1.372-6.46-2.133-10.034-2.133c-13.588,0-24.603,11.014-24.603,24.601
		c0,13.59,11.015,24.604,24.603,24.604S74.66,76.043,74.66,62.453C74.66,57.532,73.214,52.949,70.725,49.104z M59.413,59.233
		l-0.168,1.275c-0.538,2.953-1.511,5.404-2.921,7.35c-1.298,1.835-3.016,3.179-5.153,4.028c-2.138,0.851-4.494,1.274-7.067,1.274
		H33.731l4.264-24.198h10.441c1.141,0,2.204,0.073,3.189,0.218c0.984,0.146,1.868,0.364,2.651,0.655
		c1.611,0.537,2.887,1.471,3.827,2.802c0.94,1.332,1.41,2.992,1.41,4.984L59.413,59.233z"/>
</g>
<linearGradient id="SVGID_4_" gradientUnits="userSpaceOnUse" x1="107.3027" y1="105.8555" x2="93.0727" y2="16.0106">
	<stop  offset="0" style="stop-color:#B2B2B2;stop-opacity:0"/>
	<stop  offset="0.2" style="stop-color:#B2B2B2"/>
	<stop  offset="0.8" style="stop-color:#B2B2B2"/>
	<stop  offset="1" style="stop-color:#B2B2B2;stop-opacity:0"/>
</linearGradient>
<rect x="99.875" y="14.933" fill="url(#SVGID_4_)" width="0.625" height="92"/>
<script  xmlns=""></script>
<g>
	<g>
		<path fill="none" d="M153.855,40.748H140.76v9.354c0,1.034-0.839,1.872-1.871,1.872h-9.354v20.582
			c0,1.031,0.838,1.869,1.871,1.869h22.45c0.083,0,0.159-0.014,0.239-0.023l-5.59-5.588h-13.358c-1.032,0-1.871-0.84-1.871-1.871
			c0-1.033,0.839-1.871,1.871-1.871h9.617l-3.742-3.743h-5.875c-1.032,0-1.871-0.837-1.871-1.871c0-1.034,0.839-1.871,1.871-1.871
			h3.215c-0.183-1.584,0.68-3.495,2.505-5.326c0.765-0.765,2.763-2.533,4.869-2.533c0.546,0,1.063,0.117,1.527,0.339
			c0.346,0.133,0.668,0.338,0.945,0.615l7.52,7.517V42.618C155.728,41.585,154.889,40.748,153.855,40.748z"/>
		<polygon fill="none" points="137.018,43.393 132.18,48.231 137.018,48.231 		"/>
		<path d="M133.275,66.941c0,1.031,0.839,1.871,1.871,1.871h13.358l-3.741-3.742h-9.617
			C134.114,65.07,133.275,65.908,133.275,66.941z"/>
		<path d="M133.275,59.457c0,1.033,0.839,1.871,1.871,1.871h5.875l-1.73-1.73c-0.272-0.272-0.476-0.587-0.613-0.923
			c-0.169-0.339-0.272-0.705-0.316-1.089h-3.215C134.114,57.585,133.275,58.423,133.275,59.457z"/>
		<path d="M153.855,74.424h-22.45c-1.033,0-1.871-0.838-1.871-1.869V51.973h9.354c1.032,0,1.871-0.838,1.871-1.872v-9.354h13.096
			c1.033,0,1.872,0.837,1.872,1.871v15.579l1.419,1.42l1.301-1.736l-0.989-2.9c-0.358-1.065-0.215-2.155,0.394-3.001
			c0.401-0.559,0.971-0.953,1.617-1.147v-8.215c0-3.1-2.514-5.613-5.613-5.613h-14.967c-0.496,0-0.973,0.197-1.322,0.548
			L126.34,48.779c-0.351,0.352-0.548,0.827-0.548,1.323v22.453c0,3.1,2.514,5.611,5.613,5.611h22.45
			c1.139,0,2.196-0.342,3.081-0.924l-2.842-2.842C154.015,74.41,153.938,74.424,153.855,74.424z M137.018,43.393v4.838h-4.838
			L137.018,43.393z"/>
	</g>
	<g>
		<g>
			<g>
				<path fill="#010002" d="M159.092,62.488l3.655-0.048c0.479-0.006,1.107,0.314,1.388,0.71l2.109,2.982
					c0.281,0.393,0.624,0.34,0.769-0.125l1.089-3.486c0.14-0.466,0.636-0.96,1.098-1.103l3.487-1.084
					c0.465-0.142,0.52-0.488,0.126-0.768l-2.985-2.112c-0.396-0.281-0.716-0.903-0.705-1.385l0.044-3.656
					c0.006-0.479-0.305-0.644-0.694-0.352l-2.929,2.186c-0.385,0.289-1.076,0.397-1.536,0.246l-3.46-1.177
					c-0.459-0.153-0.709,0.093-0.555,0.549l1.179,3.46c0.15,0.455,0.043,1.149-0.24,1.539l-2.19,2.926
					C158.447,62.182,158.61,62.492,159.092,62.488z"/>
				<path fill="#010002" d="M175.635,82.078l0.061-0.063l-29.578-29.571l-0.033,0.032c-0.005-0.002-0.005-0.006-0.009-0.007
					c-0.489-0.496-1.99,0.201-3.343,1.552c-1.348,1.353-2.045,2.848-1.553,3.343c0.003,0.005,0.009,0.005,0.01,0.006l-0.033,0.036
					l29.575,29.578l0.059-0.064c0.587,0.313,1.962-0.367,3.215-1.625C175.267,84.037,175.943,82.662,175.635,82.078z
					 M149.582,60.874c-0.715,0.715-1.469,1.239-2.096,1.51l-4.374-4.4c0.624-0.272,1.368-0.795,2.08-1.503
					c0.705-0.708,1.222-1.446,1.497-2.066l4.385,4.41C150.801,59.443,150.28,60.174,149.582,60.874z"/>
			</g>
		</g>
	</g>
</g>
</svg>
